<svg xmlns="http://www.w3.org/2000/svg">
  <!-- Font Awesome Free 7.0.0 by @fontawesome - https://fontawesome.com License - https://fontawesome.com/license (Commercial License) Copyright 2026 Fonticons, Inc. -->
  <symbol id="menu" viewBox="0 0 640 640"><path d="M96 160C96 142.3 110.3 128 128 128L512 128C529.7 128 544 142.3 544 160C544 177.7 529.7 192 512 192L128 192C110.3 192 96 177.7 96 160zM96 320C96 302.3 110.3 288 128 288L512 288C529.7 288 544 302.3 544 320C544 337.7 529.7 352 512 352L128 352C110.3 352 96 337.7 96 320zM544 480C544 497.7 529.7 512 512 512L128 512C110.3 512 96 497.7 96 480C96 462.3 110.3 448 128 448L512 448C529.7 448 544 462.3 544 480z"/></symbol>

  <symbol id="search" viewBox="0 0 640 640"><path d="M480 272C480 317.9 465.1 360.3 440 394.7L566.6 521.4C579.1 533.9 579.1 554.2 566.6 566.7C554.1 579.2 533.8 579.2 521.3 566.7L394.7 440C360.3 465.1 317.9 480 272 480C157.1 480 64 386.9 64 272C64 157.1 157.1 64 272 64C386.9 64 480 157.1 480 272zM272 416C351.5 416 416 351.5 416 272C416 192.5 351.5 128 272 128C192.5 128 128 192.5 128 272C128 351.5 192.5 416 272 416z"/></symbol>
  <symbol id="arrow-inline-end" viewBox="0 0 640 640"><path d="M566.6 342.6C579.1 330.1 579.1 309.8 566.6 297.3L406.6 137.3C394.1 124.8 373.8 124.8 361.3 137.3C348.8 149.8 348.8 170.1 361.3 182.6L466.7 288L96 288C78.3 288 64 302.3 64 320C64 337.7 78.3 352 96 352L466.7 352L361.3 457.4C348.8 469.9 348.8 490.2 361.3 502.7C373.8 515.2 394.1 515.2 406.6 502.7L566.6 342.7z"/></symbol>

  <symbol id="download" viewBox="0 0 640 640"><path d="M352 96C352 78.3 337.7 64 320 64C302.3 64 288 78.3 288 96L288 306.7L246.6 265.3C234.1 252.8 213.8 252.8 201.3 265.3C188.8 277.8 188.8 298.1 201.3 310.6L297.3 406.6C309.8 419.1 330.1 419.1 342.6 406.6L438.6 310.6C451.1 298.1 451.1 277.8 438.6 265.3C426.1 252.8 405.8 252.8 393.3 265.3L352 306.7L352 96zM160 384C124.7 384 96 412.7 96 448L96 480C96 515.3 124.7 544 160 544L480 544C515.3 544 544 515.3 544 480L544 448C544 412.7 515.3 384 480 384L433.1 384L376.5 440.6C345.3 471.8 294.6 471.8 263.4 440.6L206.9 384L160 384zM464 440C477.3 440 488 450.7 488 464C488 477.3 477.3 488 464 488C450.7 488 440 477.3 440 464C440 450.7 450.7 440 464 440z"/></symbol>
  <symbol id="feather" viewBox="0 0 640 640"><path d="M416 64C457 64 496.3 80.3 525.2 109.2L530.7 114.7C559.7 143.7 576 183 576 223.9C576 248 570.3 271.5 559.8 292.7C557.9 296.4 554.5 299.2 550.5 300.4L438.5 334C434.6 335.2 432 338.7 432 342.8C432 347.9 436.1 352 441.2 352L473.4 352C487.7 352 494.8 369.2 484.7 379.3L462.3 401.7C460.4 403.6 458.1 404.9 455.6 405.7L374.6 430C370.7 431.2 368.1 434.7 368.1 438.8C368.1 443.9 372.2 448 377.3 448C390.5 448 396.2 463.7 385.1 470.9C344 497.5 295.8 512 246.1 512L160.1 512L112.1 560C103.3 568.8 88.9 568.8 80.1 560C71.3 551.2 71.3 536.8 80.1 528L320 288C328.8 279.2 328.8 264.8 320 256C311.2 247.2 296.8 247.2 288 256L143.5 400.5C137.8 406.2 128 402.2 128 394.1C128 326.2 155 261.1 203 213.1L306.8 109.2C335.7 80.3 375 64 416 64z"/></symbol>
  <symbol id="list-check" viewBox="0 0 640 640"><path d="M197.8 100.3C208.7 107.9 211.3 122.9 203.7 133.7L147.7 213.7C143.6 219.5 137.2 223.2 130.1 223.8C123 224.4 116 222 111 217L71 177C61.7 167.6 61.7 152.4 71 143C80.3 133.6 95.6 133.7 105 143L124.8 162.8L164.4 106.2C172 95.3 187 92.7 197.8 100.3zM197.8 260.3C208.7 267.9 211.3 282.9 203.7 293.7L147.7 373.7C143.6 379.5 137.2 383.2 130.1 383.8C123 384.4 116 382 111 377L71 337C61.6 327.6 61.6 312.4 71 303.1C80.4 293.8 95.6 293.7 104.9 303.1L124.7 322.9L164.3 266.3C171.9 255.4 186.9 252.8 197.7 260.4zM288 160C288 142.3 302.3 128 320 128L544 128C561.7 128 576 142.3 576 160C576 177.7 561.7 192 544 192L320 192C302.3 192 288 177.7 288 160zM288 320C288 302.3 302.3 288 320 288L544 288C561.7 288 576 302.3 576 320C576 337.7 561.7 352 544 352L320 352C302.3 352 288 337.7 288 320zM224 480C224 462.3 238.3 448 256 448L544 448C561.7 448 576 462.3 576 480C576 497.7 561.7 512 544 512L256 512C238.3 512 224 497.7 224 480zM128 440C150.1 440 168 457.9 168 480C168 502.1 150.1 520 128 520C105.9 520 88 502.1 88 480C88 457.9 105.9 440 128 440z"/></symbol>
</svg>
